<?xml version="1.0" encoding="us-ascii" standalone="no"?><svg xmlns="http://www.w3.org/2000/svg" xmlns:xlink="http://www.w3.org/1999/xlink" contentStyleType="text/css" height="667px" preserveAspectRatio="none" style="width:591px;height:667px;background:#FFFFFF;" version="1.1" viewBox="0 0 591 667" width="591px" zoomAndPan="magnify"><defs/><g><!--cluster edu--><g id="cluster_edu"><path d="M8.5,6.0137 L36.5,6.0137 A3.75,3.75 0 0 1 39,8.5137 L46,30.6348 L581.5,30.6348 A2.5,2.5 0 0 1 584,33.1348 L584,657.5137 A2.5,2.5 0 0 1 581.5,660.0137 L8.5,660.0137 A2.5,2.5 0 0 1 6,657.5137 L6,8.5137 A2.5,2.5 0 0 1 8.5,6.0137 " fill="none" style="stroke:#000000;stroke-width:1.5;"/><line style="stroke:#000000;stroke-width:1.5;" x1="6" x2="46" y1="30.6348" y2="30.6348"/><text fill="#000000" font-family="sans-serif" font-size="14" font-weight="bold" lengthAdjust="spacing" textLength="27" x="10" y="23.1211">edu</text></g><!--cluster csuglobal--><g id="cluster_csuglobal"><path d="M32.5,51.0137 L101.5,51.0137 A3.75,3.75 0 0 1 104,53.5137 L111,75.6348 L557.5,75.6348 A2.5,2.5 0 0 1 560,78.1348 L560,633.5137 A2.5,2.5 0 0 1 557.5,636.0137 L32.5,636.0137 A2.5,2.5 0 0 1 30,633.5137 L30,53.5137 A2.5,2.5 0 0 1 32.5,51.0137 " fill="none" style="stroke:#000000;stroke-width:1.5;"/><line style="stroke:#000000;stroke-width:1.5;" x1="30" x2="111" y1="75.6348" y2="75.6348"/><text fill="#000000" font-family="sans-serif" font-size="14" font-weight="bold" lengthAdjust="spacing" textLength="68" x="34" y="68.1211">csuglobal</text></g><!--class AutomobileInventory--><g id="elem_AutomobileInventory"><rect codeLine="1" fill="#F1F1F1" height="532.1484" id="AutomobileInventory" rx="2.5" ry="2.5" style="stroke:#181818;stroke-width:0.5;" width="498" x="46" y="88.0137"/><ellipse cx="226.75" cy="104.0137" fill="#ADD1B2" rx="11" ry="11" style="stroke:#181818;stroke-width:1.0;"/><path d="M229.5156,99.8887 Q229.6719,99.6699 229.8594,99.5605 Q230.0469,99.4512 230.2656,99.4512 Q230.6406,99.4512 230.875,99.7168 Q231.1094,99.9668 231.1094,100.5762 L231.1094,102.0293 Q231.1094,102.6387 230.875,102.9043 Q230.6406,103.1699 230.2656,103.1699 Q229.9219,103.1699 229.7188,102.9668 Q229.5156,102.7793 229.4063,102.2637 Q229.3594,101.9043 229.1719,101.7168 Q228.8438,101.3418 228.2344,101.123 Q227.625,100.9043 227,100.9043 Q226.2344,100.9043 225.5938,101.2324 Q224.9688,101.5605 224.4688,102.3105 Q223.9844,103.0605 223.9844,104.0918 L223.9844,105.1855 Q223.9844,106.4199 224.875,107.248 Q225.7656,108.0605 227.3594,108.0605 Q228.2969,108.0605 228.9531,107.8105 Q229.3438,107.6543 229.7656,107.2168 Q230.0313,106.9512 230.1719,106.873 Q230.3281,106.7949 230.5313,106.7949 Q230.8594,106.7949 231.1094,107.0605 Q231.375,107.3105 231.375,107.6543 Q231.375,107.998 231.0313,108.4043 Q230.5313,108.9824 229.7344,109.3105 Q228.6563,109.7637 227.3594,109.7637 Q225.8438,109.7637 224.6406,109.1387 Q223.6563,108.6387 222.9688,107.5762 Q222.2813,106.498 222.2813,105.2168 L222.2813,104.0605 Q222.2813,102.7324 222.8906,101.5918 Q223.5156,100.4355 224.6094,99.8262 Q225.7031,99.2012 226.9375,99.2012 Q227.6719,99.2012 228.3125,99.373 Q228.9688,99.5293 229.5156,99.8887 Z " fill="#000000"/><text fill="#000000" font-family="sans-serif" font-size="14" lengthAdjust="spacing" textLength="128" x="247.25" y="109.8105">AutomobileInventory</text><line style="stroke:#181818;stroke-width:0.5;" x1="47" x2="543" y1="120.0137" y2="120.0137"/><rect fill="none" height="6" style="stroke:#C82930;stroke-width:1.0;" width="6" x="54" y="131.8242"/><text fill="#000000" font-family="sans-serif" font-size="14" lengthAdjust="spacing" textLength="204" x="66" y="139.1211">ArrayList&lt;Automobile&gt; inventory</text><rect fill="none" height="6" style="stroke:#C82930;stroke-width:1.0;" width="6" x="54" y="150.4453"/><text fill="#000000" font-family="sans-serif" font-size="14" lengthAdjust="spacing" textLength="104" x="66" y="157.7422">String makesList</text><line style="stroke:#181818;stroke-width:0.5;" x1="47" x2="543" y1="165.2559" y2="165.2559"/><ellipse cx="57" cy="180.0664" fill="#84BE84" rx="3" ry="3" style="stroke:#038048;stroke-width:1.0;"/><text fill="#000000" font-family="sans-serif" font-size="14" lengthAdjust="spacing" textLength="201" x="66" y="184.3633">&#171;Create&#187; AutomobileInventory()</text><ellipse cx="57" cy="198.6875" fill="#84BE84" rx="3" ry="3" style="stroke:#038048;stroke-width:1.0;"/><text fill="#000000" font-family="sans-serif" font-size="14" lengthAdjust="spacing" textLength="343" x="66" y="202.9844">&#171;Create&#187; AutomobileInventory(ArrayList&lt;Automobile&gt;)</text><ellipse cx="57" cy="217.3086" fill="#84BE84" rx="3" ry="3" style="stroke:#038048;stroke-width:1.0;"/><text fill="#000000" font-family="sans-serif" font-size="14" lengthAdjust="spacing" textLength="234" x="66" y="221.6055">ArrayList&lt;Automobile&gt; getInventory()</text><ellipse cx="57" cy="235.9297" fill="#84BE84" rx="3" ry="3" style="stroke:#038048;stroke-width:1.0;"/><text fill="#000000" font-family="sans-serif" font-size="14" lengthAdjust="spacing" textLength="259" x="66" y="240.2266">void setInventory(ArrayList&lt;Automobile&gt;)</text><ellipse cx="57" cy="254.5508" fill="#84BE84" rx="3" ry="3" style="stroke:#038048;stroke-width:1.0;"/><text fill="#000000" font-family="sans-serif" font-size="14" lengthAdjust="spacing" textLength="260" x="66" y="258.8477">void menu(Scanner,AutomobileInventory)</text><ellipse cx="57" cy="273.1719" fill="#84BE84" rx="3" ry="3" style="stroke:#038048;stroke-width:1.0;"/><text fill="#000000" font-family="sans-serif" font-size="14" lengthAdjust="spacing" textLength="450" x="66" y="277.4688">ArrayList&lt;Automobile&gt; importInventory(ArrayList&lt;Automobile&gt;,boolean)</text><ellipse cx="57" cy="291.793" fill="#84BE84" rx="3" ry="3" style="stroke:#038048;stroke-width:1.0;"/><text fill="#000000" font-family="sans-serif" font-size="14" lengthAdjust="spacing" textLength="242" x="66" y="296.0898">List&lt;String&gt; importMakesList(boolean)</text><ellipse cx="57" cy="310.4141" fill="#84BE84" rx="3" ry="3" style="stroke:#038048;stroke-width:1.0;"/><text fill="#000000" font-family="sans-serif" font-size="14" lengthAdjust="spacing" textLength="243" x="66" y="314.7109">void listInventory(AutomobileInventory)</text><ellipse cx="57" cy="329.0352" fill="#84BE84" rx="3" ry="3" style="stroke:#038048;stroke-width:1.0;"/><text fill="#000000" font-family="sans-serif" font-size="14" lengthAdjust="spacing" textLength="336" x="66" y="333.332">void addAutomobile(AutomobileInventory,Automobile)</text><ellipse cx="57" cy="347.6563" fill="#84BE84" rx="3" ry="3" style="stroke:#038048;stroke-width:1.0;"/><text fill="#000000" font-family="sans-serif" font-size="14" lengthAdjust="spacing" textLength="449" x="66" y="351.9531">ArrayList&lt;Automobile&gt; addAutomobile(Scanner,ArrayList&lt;Automobile&gt;)</text><polygon fill="#4177AF" points="57,362.2773,53,368.2773,61,368.2773" style="stroke:#1963A0;stroke-width:1.0;"/><text fill="#000000" font-family="sans-serif" font-size="14" lengthAdjust="spacing" textLength="198" x="66" y="370.5742">String enterVin(Scanner,String)</text><ellipse cx="57" cy="384.8984" fill="#84BE84" rx="3" ry="3" style="stroke:#038048;stroke-width:1.0;"/><text fill="#000000" font-family="sans-serif" font-size="14" lengthAdjust="spacing" textLength="325" x="66" y="389.1953">boolean duplicateVin(String,ArrayList&lt;Automobile&gt;)</text><ellipse cx="57" cy="403.5195" fill="#84BE84" rx="3" ry="3" style="stroke:#038048;stroke-width:1.0;"/><text fill="#000000" font-family="sans-serif" font-size="14" lengthAdjust="spacing" textLength="269" x="66" y="407.8164">Automobile addMake(Scanner,Automobile)</text><ellipse cx="57" cy="422.1406" fill="#84BE84" rx="3" ry="3" style="stroke:#038048;stroke-width:1.0;"/><text fill="#000000" font-family="sans-serif" font-size="14" lengthAdjust="spacing" textLength="273" x="66" y="426.4375">Automobile addModel(Scanner,Automobile)</text><ellipse cx="57" cy="440.7617" fill="#84BE84" rx="3" ry="3" style="stroke:#038048;stroke-width:1.0;"/><text fill="#000000" font-family="sans-serif" font-size="14" lengthAdjust="spacing" textLength="269" x="66" y="445.0586">Automobile addColor(Scanner,Automobile)</text><ellipse cx="57" cy="459.3828" fill="#84BE84" rx="3" ry="3" style="stroke:#038048;stroke-width:1.0;"/><text fill="#000000" font-family="sans-serif" font-size="14" lengthAdjust="spacing" textLength="265" x="66" y="463.6797">Automobile addYear(Scanner,Automobile)</text><ellipse cx="57" cy="478.0039" fill="#84BE84" rx="3" ry="3" style="stroke:#038048;stroke-width:1.0;"/><text fill="#000000" font-family="sans-serif" font-size="14" lengthAdjust="spacing" textLength="284" x="66" y="482.3008">Automobile addMileage(Scanner,Automobile)</text><ellipse cx="57" cy="496.625" fill="#84BE84" rx="3" ry="3" style="stroke:#038048;stroke-width:1.0;"/><text fill="#000000" font-family="sans-serif" font-size="14" lengthAdjust="spacing" textLength="472" x="66" y="500.9219">ArrayList&lt;Automobile&gt; removeAutomobile(Scanner,ArrayList&lt;Automobile&gt;)</text><ellipse cx="57" cy="515.2461" fill="#84BE84" rx="3" ry="3" style="stroke:#038048;stroke-width:1.0;"/><text fill="#000000" font-family="sans-serif" font-size="14" lengthAdjust="spacing" textLength="456" x="66" y="519.543">ArrayList&lt;Automobile&gt; removeAutomobile(ArrayList&lt;Automobile&gt;,String)</text><ellipse cx="57" cy="533.8672" fill="#84BE84" rx="3" ry="3" style="stroke:#038048;stroke-width:1.0;"/><text fill="#000000" font-family="sans-serif" font-size="14" lengthAdjust="spacing" textLength="339" x="66" y="538.1641">void updateAutomobile(Scanner,AutomobileInventory)</text><ellipse cx="57" cy="552.4883" fill="#84BE84" rx="3" ry="3" style="stroke:#038048;stroke-width:1.0;"/><text fill="#000000" font-family="sans-serif" font-size="14" lengthAdjust="spacing" textLength="270" x="66" y="556.7852">void saveInventory(ArrayList&lt;Automobile&gt;)</text><ellipse cx="57" cy="571.1094" fill="#84BE84" rx="3" ry="3" style="stroke:#038048;stroke-width:1.0;"/><text fill="#000000" font-family="sans-serif" font-size="14" lengthAdjust="spacing" textLength="262" x="66" y="575.4063">void quit(Scanner,ArrayList&lt;Automobile&gt;)</text><ellipse cx="57" cy="589.7305" fill="#84BE84" rx="3" ry="3" style="stroke:#038048;stroke-width:1.0;"/><text fill="#000000" font-family="sans-serif" font-size="14" lengthAdjust="spacing" text-decoration="underline" textLength="167" x="66" y="594.0273">void automobileInventory()</text><ellipse cx="57" cy="608.3516" fill="#84BE84" rx="3" ry="3" style="stroke:#038048;stroke-width:1.0;"/><text fill="#000000" font-family="sans-serif" font-size="14" lengthAdjust="spacing" text-decoration="underline" textLength="115" x="66" y="612.6484">void main(String[])</text></g><!--SRC=[ZPJBQiCm44Nt_Wej7Uhc2umXP5LeLe52ALsChS68ofAZXo64zDjhA_4Bf5ehOytHdPaxOrSSj2P8xRxIjkQo1Bu_M2CRMJAERw93OQIwabloIWvAmVMTQPFFH47OoFJ4sIWcQjB03-e1J5v8dXyLWi6Y81xTTBUDUDCEz_prr6ZMyfrabEZbQL3HeGqAcvuh409LvYaed9erhLHRUR9IIeuW1XaNUvWstZwDtgKBpjN5-yE5jhymHmAbSzX7BjeATxDMcGpnU_SxphvFWEg3YUd2utn8yso8KDjoLlK3TvWBP-4XJwz3GOCxdjbuG4cHHv57oQMA8ZyHui1J_uGwMAZNROMDx33Uy6WT_nBEKt4ROrlQpyEN_Pyrqz1Xx4TriSnijtJJ1Wohxiyr3lmlrbG3qnPzVU-I-ny0]--></g></svg>