<?xml version="1.0" encoding="us-ascii" standalone="no"?><svg xmlns="http://www.w3.org/2000/svg" xmlns:xlink="http://www.w3.org/1999/xlink" contentStyleType="text/css" height="497px" preserveAspectRatio="none" style="width:554px;height:497px;background:#FFFFFF;" version="1.1" viewBox="0 0 554 497" width="554px" zoomAndPan="magnify"><defs/><g><!--class AutomobileInventory--><g id="elem_AutomobileInventory"><rect codeLine="1" fill="#F1F1F1" height="476.2852" id="AutomobileInventory" rx="2.5" ry="2.5" style="stroke:#181818;stroke-width:0.5;" width="533" x="7" y="7"/><ellipse cx="205.25" cy="23" fill="#ADD1B2" rx="11" ry="11" style="stroke:#181818;stroke-width:1.0;"/><path d="M208.0156,18.875 Q208.1719,18.6563 208.3594,18.5469 Q208.5469,18.4375 208.7656,18.4375 Q209.1406,18.4375 209.375,18.7031 Q209.6094,18.9531 209.6094,19.5625 L209.6094,21.0156 Q209.6094,21.625 209.375,21.8906 Q209.1406,22.1563 208.7656,22.1563 Q208.4219,22.1563 208.2188,21.9531 Q208.0156,21.7656 207.9063,21.25 Q207.8594,20.8906 207.6719,20.7031 Q207.3438,20.3281 206.7344,20.1094 Q206.125,19.8906 205.5,19.8906 Q204.7344,19.8906 204.0938,20.2188 Q203.4688,20.5469 202.9688,21.2969 Q202.4844,22.0469 202.4844,23.0781 L202.4844,24.1719 Q202.4844,25.4063 203.375,26.2344 Q204.2656,27.0469 205.8594,27.0469 Q206.7969,27.0469 207.4531,26.7969 Q207.8438,26.6406 208.2656,26.2031 Q208.5313,25.9375 208.6719,25.8594 Q208.8281,25.7813 209.0313,25.7813 Q209.3594,25.7813 209.6094,26.0469 Q209.875,26.2969 209.875,26.6406 Q209.875,26.9844 209.5313,27.3906 Q209.0313,27.9688 208.2344,28.2969 Q207.1563,28.75 205.8594,28.75 Q204.3438,28.75 203.1406,28.125 Q202.1563,27.625 201.4688,26.5625 Q200.7813,25.4844 200.7813,24.2031 L200.7813,23.0469 Q200.7813,21.7188 201.3906,20.5781 Q202.0156,19.4219 203.1094,18.8125 Q204.2031,18.1875 205.4375,18.1875 Q206.1719,18.1875 206.8125,18.3594 Q207.4688,18.5156 208.0156,18.875 Z " fill="#000000"/><text fill="#000000" font-family="sans-serif" font-size="14" lengthAdjust="spacing" textLength="128" x="225.75" y="28.7969">AutomobileInventory</text><line style="stroke:#181818;stroke-width:0.5;" x1="8" x2="539" y1="39" y2="39"/><rect fill="none" height="6" style="stroke:#C82930;stroke-width:1.0;" width="6" x="15" y="50.8105"/><text fill="#000000" font-family="sans-serif" font-size="14" lengthAdjust="spacing" textLength="204" x="27" y="58.1074">ArrayList&lt;Automobile&gt; inventory</text><rect fill="none" height="6" style="stroke:#C82930;stroke-width:1.0;" width="6" x="15" y="69.4316"/><text fill="#000000" font-family="sans-serif" font-size="14" lengthAdjust="spacing" textLength="104" x="27" y="76.7285">String makesList</text><polygon fill="none" points="18,87.0527,14,93.0527,22,93.0527" style="stroke:#1963A0;stroke-width:1.0;"/><text fill="#000000" font-family="sans-serif" font-size="14" lengthAdjust="spacing" textLength="141" x="27" y="95.3496">boolean overrideMake</text><line style="stroke:#181818;stroke-width:0.5;" x1="8" x2="539" y1="102.8633" y2="102.8633"/><ellipse cx="18" cy="117.6738" fill="#84BE84" rx="3" ry="3" style="stroke:#038048;stroke-width:1.0;"/><text fill="#000000" font-family="sans-serif" font-size="14" lengthAdjust="spacing" textLength="234" x="27" y="121.9707">ArrayList&lt;Automobile&gt; getInventory()</text><ellipse cx="18" cy="136.2949" fill="#84BE84" rx="3" ry="3" style="stroke:#038048;stroke-width:1.0;"/><text fill="#000000" font-family="sans-serif" font-size="14" lengthAdjust="spacing" textLength="274" x="27" y="140.5918">void menu(Scanner,ArrayList&lt;Automobile&gt;)</text><ellipse cx="18" cy="154.916" fill="#84BE84" rx="3" ry="3" style="stroke:#038048;stroke-width:1.0;"/><text fill="#000000" font-family="sans-serif" font-size="14" lengthAdjust="spacing" textLength="507" x="27" y="159.2129">ArrayList&lt;Automobile&gt; importInventory(Scanner,ArrayList&lt;Automobile&gt;,boolean)</text><polygon fill="#4177AF" points="18,169.5371,14,175.5371,22,175.5371" style="stroke:#1963A0;stroke-width:1.0;"/><text fill="#000000" font-family="sans-serif" font-size="14" lengthAdjust="spacing" textLength="191" x="27" y="177.834">List&lt;String&gt; importMakesList()</text><ellipse cx="18" cy="192.1582" fill="#84BE84" rx="3" ry="3" style="stroke:#038048;stroke-width:1.0;"/><text fill="#000000" font-family="sans-serif" font-size="14" lengthAdjust="spacing" textLength="333" x="27" y="196.4551">String[] listInventory(Scanner,ArrayList&lt;Automobile&gt;)</text><ellipse cx="18" cy="210.7793" fill="#84BE84" rx="3" ry="3" style="stroke:#038048;stroke-width:1.0;"/><text fill="#000000" font-family="sans-serif" font-size="14" lengthAdjust="spacing" textLength="438" x="27" y="215.0762">AutomobileInventory addAutomobile(AutomobileInventory,Automobile)</text><ellipse cx="18" cy="229.4004" fill="#84BE84" rx="3" ry="3" style="stroke:#038048;stroke-width:1.0;"/><text fill="#000000" font-family="sans-serif" font-size="14" lengthAdjust="spacing" textLength="449" x="27" y="233.6973">ArrayList&lt;Automobile&gt; addAutomobile(Scanner,ArrayList&lt;Automobile&gt;)</text><ellipse cx="18" cy="248.0215" fill="#84BE84" rx="3" ry="3" style="stroke:#038048;stroke-width:1.0;"/><text fill="#000000" font-family="sans-serif" font-size="14" lengthAdjust="spacing" textLength="325" x="27" y="252.3184">boolean duplicateVin(String,ArrayList&lt;Automobile&gt;)</text><polygon fill="#4177AF" points="18,262.6426,14,268.6426,22,268.6426" style="stroke:#1963A0;stroke-width:1.0;"/><text fill="#000000" font-family="sans-serif" font-size="14" lengthAdjust="spacing" textLength="269" x="27" y="270.9395">Automobile addMake(Scanner,Automobile)</text><polygon fill="#4177AF" points="18,281.2637,14,287.2637,22,287.2637" style="stroke:#1963A0;stroke-width:1.0;"/><text fill="#000000" font-family="sans-serif" font-size="14" lengthAdjust="spacing" textLength="273" x="27" y="289.5605">Automobile addModel(Scanner,Automobile)</text><polygon fill="#4177AF" points="18,299.8848,14,305.8848,22,305.8848" style="stroke:#1963A0;stroke-width:1.0;"/><text fill="#000000" font-family="sans-serif" font-size="14" lengthAdjust="spacing" textLength="269" x="27" y="308.1816">Automobile addColor(Scanner,Automobile)</text><polygon fill="#4177AF" points="18,318.5059,14,324.5059,22,324.5059" style="stroke:#1963A0;stroke-width:1.0;"/><text fill="#000000" font-family="sans-serif" font-size="14" lengthAdjust="spacing" textLength="265" x="27" y="326.8027">Automobile addYear(Scanner,Automobile)</text><polygon fill="#4177AF" points="18,337.127,14,343.127,22,343.127" style="stroke:#1963A0;stroke-width:1.0;"/><text fill="#000000" font-family="sans-serif" font-size="14" lengthAdjust="spacing" textLength="284" x="27" y="345.4238">Automobile addMileage(Scanner,Automobile)</text><ellipse cx="18" cy="359.748" fill="#84BE84" rx="3" ry="3" style="stroke:#038048;stroke-width:1.0;"/><text fill="#000000" font-family="sans-serif" font-size="14" lengthAdjust="spacing" textLength="472" x="27" y="364.0449">ArrayList&lt;Automobile&gt; removeAutomobile(Scanner,ArrayList&lt;Automobile&gt;)</text><ellipse cx="18" cy="378.3691" fill="#84BE84" rx="3" ry="3" style="stroke:#038048;stroke-width:1.0;"/><text fill="#000000" font-family="sans-serif" font-size="14" lengthAdjust="spacing" textLength="456" x="27" y="382.666">ArrayList&lt;Automobile&gt; removeAutomobile(ArrayList&lt;Automobile&gt;,String)</text><ellipse cx="18" cy="396.9902" fill="#84BE84" rx="3" ry="3" style="stroke:#038048;stroke-width:1.0;"/><text fill="#000000" font-family="sans-serif" font-size="14" lengthAdjust="spacing" textLength="469" x="27" y="401.2871">ArrayList&lt;Automobile&gt; updateAutomobile(Scanner,ArrayList&lt;Automobile&gt;)</text><ellipse cx="18" cy="415.6113" fill="#84BE84" rx="3" ry="3" style="stroke:#038048;stroke-width:1.0;"/><text fill="#000000" font-family="sans-serif" font-size="14" lengthAdjust="spacing" textLength="327" x="27" y="419.9082">void saveInventory(Scanner,ArrayList&lt;Automobile&gt;)</text><ellipse cx="18" cy="434.2324" fill="#84BE84" rx="3" ry="3" style="stroke:#038048;stroke-width:1.0;"/><text fill="#000000" font-family="sans-serif" font-size="14" lengthAdjust="spacing" textLength="262" x="27" y="438.5293">void quit(Scanner,ArrayList&lt;Automobile&gt;)</text><ellipse cx="18" cy="452.8535" fill="#84BE84" rx="3" ry="3" style="stroke:#038048;stroke-width:1.0;"/><text fill="#000000" font-family="sans-serif" font-size="14" lengthAdjust="spacing" text-decoration="underline" textLength="167" x="27" y="457.1504">void automobileInventory()</text><ellipse cx="18" cy="471.4746" fill="#84BE84" rx="3" ry="3" style="stroke:#038048;stroke-width:1.0;"/><text fill="#000000" font-family="sans-serif" font-size="14" lengthAdjust="spacing" text-decoration="underline" textLength="115" x="27" y="475.7715">void main(String[])</text></g><!--SRC=[bPF1QiCm38RlUGeV4vQzmHYKdWRBgJ0OfGSr5i7CjbBR2PJIFdkTP6ao4g_9AI1z-lLBLd89rh9DvKZHKKZyq3LgH-RCBj4hsnW3vqzXtTj0l3FHCvxOEIDqmHJye6t0wCQEH191CwhH6C4nyxde9Q1Le7kqZ1EFrIGuKwYhU9U3rcZIsS8ag2XKIMOa-gzC-cisyRxRN3TFhvBrOxNMkjp-mAIFB6pG-fpPBd0-XECP8XrYuLd_gZmrqhyChqefSd3u9NJSJHKgketSD-sQZGoDHXOd876KYyWjIJABo6-4PM3clr3C6mtjqg3o5xjcdGjrvW-lMtjOfYgvVw0rTje_nqADAqwphJbLmZr7BzQ14_crgu7fnSPJIi7ZmFQ79BhU0G00]--></g></svg>