<?xml version="1.0" encoding="us-ascii" standalone="no"?><svg xmlns="http://www.w3.org/2000/svg" xmlns:xlink="http://www.w3.org/1999/xlink" contentStyleType="text/css" height="497px" preserveAspectRatio="none" style="width:403px;height:497px;background:#FFFFFF;" version="1.1" viewBox="0 0 403 497" width="403px" zoomAndPan="magnify"><defs/><g><!--class Automobile--><g id="elem_Automobile"><rect codeLine="1" fill="#F1F1F1" height="476.2852" id="Automobile" rx="2.5" ry="2.5" style="stroke:#181818;stroke-width:0.5;" width="382" x="7" y="7"/><ellipse cx="158.75" cy="23" fill="#ADD1B2" rx="11" ry="11" style="stroke:#181818;stroke-width:1.0;"/><path d="M161.5156,18.875 Q161.6719,18.6563 161.8594,18.5469 Q162.0469,18.4375 162.2656,18.4375 Q162.6406,18.4375 162.875,18.7031 Q163.1094,18.9531 163.1094,19.5625 L163.1094,21.0156 Q163.1094,21.625 162.875,21.8906 Q162.6406,22.1563 162.2656,22.1563 Q161.9219,22.1563 161.7188,21.9531 Q161.5156,21.7656 161.4063,21.25 Q161.3594,20.8906 161.1719,20.7031 Q160.8438,20.3281 160.2344,20.1094 Q159.625,19.8906 159,19.8906 Q158.2344,19.8906 157.5938,20.2188 Q156.9688,20.5469 156.4688,21.2969 Q155.9844,22.0469 155.9844,23.0781 L155.9844,24.1719 Q155.9844,25.4063 156.875,26.2344 Q157.7656,27.0469 159.3594,27.0469 Q160.2969,27.0469 160.9531,26.7969 Q161.3438,26.6406 161.7656,26.2031 Q162.0313,25.9375 162.1719,25.8594 Q162.3281,25.7813 162.5313,25.7813 Q162.8594,25.7813 163.1094,26.0469 Q163.375,26.2969 163.375,26.6406 Q163.375,26.9844 163.0313,27.3906 Q162.5313,27.9688 161.7344,28.2969 Q160.6563,28.75 159.3594,28.75 Q157.8438,28.75 156.6406,28.125 Q155.6563,27.625 154.9688,26.5625 Q154.2813,25.4844 154.2813,24.2031 L154.2813,23.0469 Q154.2813,21.7188 154.8906,20.5781 Q155.5156,19.4219 156.6094,18.8125 Q157.7031,18.1875 158.9375,18.1875 Q159.6719,18.1875 160.3125,18.3594 Q160.9688,18.5156 161.5156,18.875 Z " fill="#000000"/><text fill="#000000" font-family="sans-serif" font-size="14" lengthAdjust="spacing" textLength="70" x="179.25" y="28.7969">Automobile</text><line style="stroke:#181818;stroke-width:0.5;" x1="8" x2="388" y1="39" y2="39"/><rect fill="none" height="6" style="stroke:#C82930;stroke-width:1.0;" width="6" x="15" y="50.8105"/><text fill="#000000" font-family="sans-serif" font-size="14" lengthAdjust="spacing" textLength="59" x="27" y="58.1074">String vin</text><rect fill="none" height="6" style="stroke:#C82930;stroke-width:1.0;" width="6" x="15" y="69.4316"/><text fill="#000000" font-family="sans-serif" font-size="14" lengthAdjust="spacing" textLength="75" x="27" y="76.7285">String make</text><rect fill="none" height="6" style="stroke:#C82930;stroke-width:1.0;" width="6" x="15" y="88.0527"/><text fill="#000000" font-family="sans-serif" font-size="14" lengthAdjust="spacing" textLength="79" x="27" y="95.3496">String model</text><rect fill="none" height="6" style="stroke:#C82930;stroke-width:1.0;" width="6" x="15" y="106.6738"/><text fill="#000000" font-family="sans-serif" font-size="14" lengthAdjust="spacing" textLength="72" x="27" y="113.9707">String color</text><rect fill="none" height="6" style="stroke:#C82930;stroke-width:1.0;" width="6" x="15" y="125.2949"/><text fill="#000000" font-family="sans-serif" font-size="14" lengthAdjust="spacing" textLength="62" x="27" y="132.5918">Year year</text><rect fill="none" height="6" style="stroke:#C82930;stroke-width:1.0;" width="6" x="15" y="143.916"/><text fill="#000000" font-family="sans-serif" font-size="14" lengthAdjust="spacing" textLength="68" x="27" y="151.2129">int mileage</text><line style="stroke:#181818;stroke-width:0.5;" x1="8" x2="388" y1="158.7266" y2="158.7266"/><ellipse cx="18" cy="173.5371" fill="#84BE84" rx="3" ry="3" style="stroke:#038048;stroke-width:1.0;"/><text fill="#000000" font-family="sans-serif" font-size="14" lengthAdjust="spacing" textLength="143" x="27" y="177.834">&#171;Create&#187; Automobile()</text><ellipse cx="18" cy="192.1582" fill="#84BE84" rx="3" ry="3" style="stroke:#038048;stroke-width:1.0;"/><text fill="#000000" font-family="sans-serif" font-size="14" lengthAdjust="spacing" textLength="356" x="27" y="196.4551">&#171;Create&#187; Automobile(String,String,String,String,Year,int)</text><ellipse cx="18" cy="210.7793" fill="#84BE84" rx="3" ry="3" style="stroke:#038048;stroke-width:1.0;"/><text fill="#000000" font-family="sans-serif" font-size="14" lengthAdjust="spacing" textLength="116" x="27" y="215.0762">void setVin(String)</text><ellipse cx="18" cy="229.4004" fill="#84BE84" rx="3" ry="3" style="stroke:#038048;stroke-width:1.0;"/><text fill="#000000" font-family="sans-serif" font-size="14" lengthAdjust="spacing" textLength="130" x="27" y="233.6973">void setMake(String)</text><ellipse cx="18" cy="248.0215" fill="#84BE84" rx="3" ry="3" style="stroke:#038048;stroke-width:1.0;"/><text fill="#000000" font-family="sans-serif" font-size="14" lengthAdjust="spacing" textLength="134" x="27" y="252.3184">void setModel(String)</text><ellipse cx="18" cy="266.6426" fill="#84BE84" rx="3" ry="3" style="stroke:#038048;stroke-width:1.0;"/><text fill="#000000" font-family="sans-serif" font-size="14" lengthAdjust="spacing" textLength="130" x="27" y="270.9395">void setColor(String)</text><ellipse cx="18" cy="285.2637" fill="#84BE84" rx="3" ry="3" style="stroke:#038048;stroke-width:1.0;"/><text fill="#000000" font-family="sans-serif" font-size="14" lengthAdjust="spacing" textLength="119" x="27" y="289.5605">void setYear(Year)</text><ellipse cx="18" cy="303.8848" fill="#84BE84" rx="3" ry="3" style="stroke:#038048;stroke-width:1.0;"/><text fill="#000000" font-family="sans-serif" font-size="14" lengthAdjust="spacing" textLength="123" x="27" y="308.1816">void setMileage(int)</text><ellipse cx="18" cy="322.5059" fill="#84BE84" rx="3" ry="3" style="stroke:#038048;stroke-width:1.0;"/><text fill="#000000" font-family="sans-serif" font-size="14" lengthAdjust="spacing" textLength="91" x="27" y="326.8027">String getVin()</text><ellipse cx="18" cy="341.127" fill="#84BE84" rx="3" ry="3" style="stroke:#038048;stroke-width:1.0;"/><text fill="#000000" font-family="sans-serif" font-size="14" lengthAdjust="spacing" textLength="105" x="27" y="345.4238">String getMake()</text><ellipse cx="18" cy="359.748" fill="#84BE84" rx="3" ry="3" style="stroke:#038048;stroke-width:1.0;"/><text fill="#000000" font-family="sans-serif" font-size="14" lengthAdjust="spacing" textLength="109" x="27" y="364.0449">String getModel()</text><ellipse cx="18" cy="378.3691" fill="#84BE84" rx="3" ry="3" style="stroke:#038048;stroke-width:1.0;"/><text fill="#000000" font-family="sans-serif" font-size="14" lengthAdjust="spacing" textLength="105" x="27" y="382.666">String getColor()</text><ellipse cx="18" cy="396.9902" fill="#84BE84" rx="3" ry="3" style="stroke:#038048;stroke-width:1.0;"/><text fill="#000000" font-family="sans-serif" font-size="14" lengthAdjust="spacing" textLength="94" x="27" y="401.2871">Year getYear()</text><ellipse cx="18" cy="415.6113" fill="#84BE84" rx="3" ry="3" style="stroke:#038048;stroke-width:1.0;"/><text fill="#000000" font-family="sans-serif" font-size="14" lengthAdjust="spacing" textLength="154" x="27" y="419.9082">String getYearAsString()</text><ellipse cx="18" cy="434.2324" fill="#84BE84" rx="3" ry="3" style="stroke:#038048;stroke-width:1.0;"/><text fill="#000000" font-family="sans-serif" font-size="14" lengthAdjust="spacing" textLength="98" x="27" y="438.5293">int getMileage()</text><ellipse cx="18" cy="452.8535" fill="#84BE84" rx="3" ry="3" style="stroke:#038048;stroke-width:1.0;"/><text fill="#000000" font-family="sans-serif" font-size="14" lengthAdjust="spacing" textLength="149" x="27" y="457.1504">String[] getAutomobile()</text><ellipse cx="18" cy="471.4746" fill="#84BE84" rx="3" ry="3" style="stroke:#038048;stroke-width:1.0;"/><text fill="#000000" font-family="sans-serif" font-size="14" lengthAdjust="spacing" textLength="100" x="27" y="475.7715">String toString()</text></g><!--SRC=[TP3H2i8W68NlznHUBbflC0PZrrq5GKGNjls8v1JK1X6zU_ugEOVTk9rFFUVuZu8QG_gdLREwSm7aNHt8oMek6LcuJ6Ac3rWfDO58SbH2QISlG3LvkSNzSsd9x1mfWsfFsdRGG2rqtIgitltT2SPDyOCfZRF7sulY4p5Wprp6EsjwTALB6DiN-83FA70Ch779JCBRwbWaJeA5AZdnDJR8LyXPY4VcvyXYS7u8KM-2zbiuPvRgfDFN6_BDjAEHLJ-7pnS0]--></g></svg>