<?xml version="1.0" encoding="us-ascii" standalone="no"?><svg xmlns="http://www.w3.org/2000/svg" xmlns:xlink="http://www.w3.org/1999/xlink" contentStyleType="text/css" height="667px" preserveAspectRatio="none" style="width:1008px;height:667px;background:#FFFFFF;" version="1.1" viewBox="0 0 1008 667" width="1008px" zoomAndPan="magnify"><defs/><g><!--cluster edu--><g id="cluster_edu"><path d="M8.5,6.0137 L36.5,6.0137 A3.75,3.75 0 0 1 39,8.5137 L46,30.6348 L998.5,30.6348 A2.5,2.5 0 0 1 1001,33.1348 L1001,657.5137 A2.5,2.5 0 0 1 998.5,660.0137 L8.5,660.0137 A2.5,2.5 0 0 1 6,657.5137 L6,8.5137 A2.5,2.5 0 0 1 8.5,6.0137 " fill="none" style="stroke:#000000;stroke-width:1.5;"/><line style="stroke:#000000;stroke-width:1.5;" x1="6" x2="46" y1="30.6348" y2="30.6348"/><text fill="#000000" font-family="sans-serif" font-size="14" font-weight="bold" lengthAdjust="spacing" textLength="27" x="10" y="23.1211">edu</text></g><!--cluster csuglobal--><g id="cluster_csuglobal"><path d="M32.5,51.0137 L101.5,51.0137 A3.75,3.75 0 0 1 104,53.5137 L111,75.6348 L974.5,75.6348 A2.5,2.5 0 0 1 977,78.1348 L977,633.5137 A2.5,2.5 0 0 1 974.5,636.0137 L32.5,636.0137 A2.5,2.5 0 0 1 30,633.5137 L30,53.5137 A2.5,2.5 0 0 1 32.5,51.0137 " fill="none" style="stroke:#000000;stroke-width:1.5;"/><line style="stroke:#000000;stroke-width:1.5;" x1="30" x2="111" y1="75.6348" y2="75.6348"/><text fill="#000000" font-family="sans-serif" font-size="14" font-weight="bold" lengthAdjust="spacing" textLength="68" x="34" y="68.1211">csuglobal</text></g><!--class AutomobileInventory--><g id="elem_AutomobileInventory"><rect codeLine="1" fill="#F1F1F1" height="532.1484" id="AutomobileInventory" rx="2.5" ry="2.5" style="stroke:#181818;stroke-width:0.5;" width="498" x="463" y="88.0137"/><ellipse cx="643.75" cy="104.0137" fill="#ADD1B2" rx="11" ry="11" style="stroke:#181818;stroke-width:1.0;"/><path d="M646.5156,99.8887 Q646.6719,99.6699 646.8594,99.5605 Q647.0469,99.4512 647.2656,99.4512 Q647.6406,99.4512 647.875,99.7168 Q648.1094,99.9668 648.1094,100.5762 L648.1094,102.0293 Q648.1094,102.6387 647.875,102.9043 Q647.6406,103.1699 647.2656,103.1699 Q646.9219,103.1699 646.7188,102.9668 Q646.5156,102.7793 646.4063,102.2637 Q646.3594,101.9043 646.1719,101.7168 Q645.8438,101.3418 645.2344,101.123 Q644.625,100.9043 644,100.9043 Q643.2344,100.9043 642.5938,101.2324 Q641.9688,101.5605 641.4688,102.3105 Q640.9844,103.0605 640.9844,104.0918 L640.9844,105.1855 Q640.9844,106.4199 641.875,107.248 Q642.7656,108.0605 644.3594,108.0605 Q645.2969,108.0605 645.9531,107.8105 Q646.3438,107.6543 646.7656,107.2168 Q647.0313,106.9512 647.1719,106.873 Q647.3281,106.7949 647.5313,106.7949 Q647.8594,106.7949 648.1094,107.0605 Q648.375,107.3105 648.375,107.6543 Q648.375,107.998 648.0313,108.4043 Q647.5313,108.9824 646.7344,109.3105 Q645.6563,109.7637 644.3594,109.7637 Q642.8438,109.7637 641.6406,109.1387 Q640.6563,108.6387 639.9688,107.5762 Q639.2813,106.498 639.2813,105.2168 L639.2813,104.0605 Q639.2813,102.7324 639.8906,101.5918 Q640.5156,100.4355 641.6094,99.8262 Q642.7031,99.2012 643.9375,99.2012 Q644.6719,99.2012 645.3125,99.373 Q645.9688,99.5293 646.5156,99.8887 Z " fill="#000000"/><text fill="#000000" font-family="sans-serif" font-size="14" lengthAdjust="spacing" textLength="128" x="664.25" y="109.8105">AutomobileInventory</text><line style="stroke:#181818;stroke-width:0.5;" x1="464" x2="960" y1="120.0137" y2="120.0137"/><rect fill="none" height="6" style="stroke:#C82930;stroke-width:1.0;" width="6" x="471" y="131.8242"/><text fill="#000000" font-family="sans-serif" font-size="14" lengthAdjust="spacing" textLength="204" x="483" y="139.1211">ArrayList&lt;Automobile&gt; inventory</text><rect fill="none" height="6" style="stroke:#C82930;stroke-width:1.0;" width="6" x="471" y="150.4453"/><text fill="#000000" font-family="sans-serif" font-size="14" lengthAdjust="spacing" textLength="104" x="483" y="157.7422">String makesList</text><line style="stroke:#181818;stroke-width:0.5;" x1="464" x2="960" y1="165.2559" y2="165.2559"/><ellipse cx="474" cy="180.0664" fill="#84BE84" rx="3" ry="3" style="stroke:#038048;stroke-width:1.0;"/><text fill="#000000" font-family="sans-serif" font-size="14" lengthAdjust="spacing" textLength="201" x="483" y="184.3633">&#171;Create&#187; AutomobileInventory()</text><ellipse cx="474" cy="198.6875" fill="#84BE84" rx="3" ry="3" style="stroke:#038048;stroke-width:1.0;"/><text fill="#000000" font-family="sans-serif" font-size="14" lengthAdjust="spacing" textLength="343" x="483" y="202.9844">&#171;Create&#187; AutomobileInventory(ArrayList&lt;Automobile&gt;)</text><ellipse cx="474" cy="217.3086" fill="#84BE84" rx="3" ry="3" style="stroke:#038048;stroke-width:1.0;"/><text fill="#000000" font-family="sans-serif" font-size="14" lengthAdjust="spacing" textLength="234" x="483" y="221.6055">ArrayList&lt;Automobile&gt; getInventory()</text><ellipse cx="474" cy="235.9297" fill="#84BE84" rx="3" ry="3" style="stroke:#038048;stroke-width:1.0;"/><text fill="#000000" font-family="sans-serif" font-size="14" lengthAdjust="spacing" textLength="259" x="483" y="240.2266">void setInventory(ArrayList&lt;Automobile&gt;)</text><ellipse cx="474" cy="254.5508" fill="#84BE84" rx="3" ry="3" style="stroke:#038048;stroke-width:1.0;"/><text fill="#000000" font-family="sans-serif" font-size="14" lengthAdjust="spacing" textLength="260" x="483" y="258.8477">void menu(Scanner,AutomobileInventory)</text><ellipse cx="474" cy="273.1719" fill="#84BE84" rx="3" ry="3" style="stroke:#038048;stroke-width:1.0;"/><text fill="#000000" font-family="sans-serif" font-size="14" lengthAdjust="spacing" textLength="450" x="483" y="277.4688">ArrayList&lt;Automobile&gt; importInventory(ArrayList&lt;Automobile&gt;,boolean)</text><ellipse cx="474" cy="291.793" fill="#84BE84" rx="3" ry="3" style="stroke:#038048;stroke-width:1.0;"/><text fill="#000000" font-family="sans-serif" font-size="14" lengthAdjust="spacing" textLength="242" x="483" y="296.0898">List&lt;String&gt; importMakesList(boolean)</text><ellipse cx="474" cy="310.4141" fill="#84BE84" rx="3" ry="3" style="stroke:#038048;stroke-width:1.0;"/><text fill="#000000" font-family="sans-serif" font-size="14" lengthAdjust="spacing" textLength="243" x="483" y="314.7109">void listInventory(AutomobileInventory)</text><ellipse cx="474" cy="329.0352" fill="#84BE84" rx="3" ry="3" style="stroke:#038048;stroke-width:1.0;"/><text fill="#000000" font-family="sans-serif" font-size="14" lengthAdjust="spacing" textLength="336" x="483" y="333.332">void addAutomobile(AutomobileInventory,Automobile)</text><ellipse cx="474" cy="347.6563" fill="#84BE84" rx="3" ry="3" style="stroke:#038048;stroke-width:1.0;"/><text fill="#000000" font-family="sans-serif" font-size="14" lengthAdjust="spacing" textLength="449" x="483" y="351.9531">ArrayList&lt;Automobile&gt; addAutomobile(Scanner,ArrayList&lt;Automobile&gt;)</text><polygon fill="#4177AF" points="474,362.2773,470,368.2773,478,368.2773" style="stroke:#1963A0;stroke-width:1.0;"/><text fill="#000000" font-family="sans-serif" font-size="14" lengthAdjust="spacing" textLength="198" x="483" y="370.5742">String enterVin(Scanner,String)</text><ellipse cx="474" cy="384.8984" fill="#84BE84" rx="3" ry="3" style="stroke:#038048;stroke-width:1.0;"/><text fill="#000000" font-family="sans-serif" font-size="14" lengthAdjust="spacing" textLength="325" x="483" y="389.1953">boolean duplicateVin(String,ArrayList&lt;Automobile&gt;)</text><ellipse cx="474" cy="403.5195" fill="#84BE84" rx="3" ry="3" style="stroke:#038048;stroke-width:1.0;"/><text fill="#000000" font-family="sans-serif" font-size="14" lengthAdjust="spacing" textLength="269" x="483" y="407.8164">Automobile addMake(Scanner,Automobile)</text><ellipse cx="474" cy="422.1406" fill="#84BE84" rx="3" ry="3" style="stroke:#038048;stroke-width:1.0;"/><text fill="#000000" font-family="sans-serif" font-size="14" lengthAdjust="spacing" textLength="273" x="483" y="426.4375">Automobile addModel(Scanner,Automobile)</text><ellipse cx="474" cy="440.7617" fill="#84BE84" rx="3" ry="3" style="stroke:#038048;stroke-width:1.0;"/><text fill="#000000" font-family="sans-serif" font-size="14" lengthAdjust="spacing" textLength="269" x="483" y="445.0586">Automobile addColor(Scanner,Automobile)</text><ellipse cx="474" cy="459.3828" fill="#84BE84" rx="3" ry="3" style="stroke:#038048;stroke-width:1.0;"/><text fill="#000000" font-family="sans-serif" font-size="14" lengthAdjust="spacing" textLength="265" x="483" y="463.6797">Automobile addYear(Scanner,Automobile)</text><ellipse cx="474" cy="478.0039" fill="#84BE84" rx="3" ry="3" style="stroke:#038048;stroke-width:1.0;"/><text fill="#000000" font-family="sans-serif" font-size="14" lengthAdjust="spacing" textLength="284" x="483" y="482.3008">Automobile addMileage(Scanner,Automobile)</text><ellipse cx="474" cy="496.625" fill="#84BE84" rx="3" ry="3" style="stroke:#038048;stroke-width:1.0;"/><text fill="#000000" font-family="sans-serif" font-size="14" lengthAdjust="spacing" textLength="472" x="483" y="500.9219">ArrayList&lt;Automobile&gt; removeAutomobile(Scanner,ArrayList&lt;Automobile&gt;)</text><ellipse cx="474" cy="515.2461" fill="#84BE84" rx="3" ry="3" style="stroke:#038048;stroke-width:1.0;"/><text fill="#000000" font-family="sans-serif" font-size="14" lengthAdjust="spacing" textLength="456" x="483" y="519.543">ArrayList&lt;Automobile&gt; removeAutomobile(ArrayList&lt;Automobile&gt;,String)</text><ellipse cx="474" cy="533.8672" fill="#84BE84" rx="3" ry="3" style="stroke:#038048;stroke-width:1.0;"/><text fill="#000000" font-family="sans-serif" font-size="14" lengthAdjust="spacing" textLength="339" x="483" y="538.1641">void updateAutomobile(Scanner,AutomobileInventory)</text><ellipse cx="474" cy="552.4883" fill="#84BE84" rx="3" ry="3" style="stroke:#038048;stroke-width:1.0;"/><text fill="#000000" font-family="sans-serif" font-size="14" lengthAdjust="spacing" textLength="270" x="483" y="556.7852">void saveInventory(ArrayList&lt;Automobile&gt;)</text><ellipse cx="474" cy="571.1094" fill="#84BE84" rx="3" ry="3" style="stroke:#038048;stroke-width:1.0;"/><text fill="#000000" font-family="sans-serif" font-size="14" lengthAdjust="spacing" textLength="262" x="483" y="575.4063">void quit(Scanner,ArrayList&lt;Automobile&gt;)</text><ellipse cx="474" cy="589.7305" fill="#84BE84" rx="3" ry="3" style="stroke:#038048;stroke-width:1.0;"/><text fill="#000000" font-family="sans-serif" font-size="14" lengthAdjust="spacing" text-decoration="underline" textLength="167" x="483" y="594.0273">void automobileInventory()</text><ellipse cx="474" cy="608.3516" fill="#84BE84" rx="3" ry="3" style="stroke:#038048;stroke-width:1.0;"/><text fill="#000000" font-family="sans-serif" font-size="14" lengthAdjust="spacing" text-decoration="underline" textLength="115" x="483" y="612.6484">void main(String[])</text></g><!--class Automobile--><g id="elem_Automobile"><rect codeLine="29" fill="#F1F1F1" height="476.2852" id="Automobile" rx="2.5" ry="2.5" style="stroke:#181818;stroke-width:0.5;" width="382" x="46" y="116.0137"/><ellipse cx="197.75" cy="132.0137" fill="#ADD1B2" rx="11" ry="11" style="stroke:#181818;stroke-width:1.0;"/><path d="M200.5156,127.8887 Q200.6719,127.6699 200.8594,127.5605 Q201.0469,127.4512 201.2656,127.4512 Q201.6406,127.4512 201.875,127.7168 Q202.1094,127.9668 202.1094,128.5762 L202.1094,130.0293 Q202.1094,130.6387 201.875,130.9043 Q201.6406,131.1699 201.2656,131.1699 Q200.9219,131.1699 200.7188,130.9668 Q200.5156,130.7793 200.4063,130.2637 Q200.3594,129.9043 200.1719,129.7168 Q199.8438,129.3418 199.2344,129.123 Q198.625,128.9043 198,128.9043 Q197.2344,128.9043 196.5938,129.2324 Q195.9688,129.5605 195.4688,130.3105 Q194.9844,131.0605 194.9844,132.0918 L194.9844,133.1855 Q194.9844,134.4199 195.875,135.248 Q196.7656,136.0605 198.3594,136.0605 Q199.2969,136.0605 199.9531,135.8105 Q200.3438,135.6543 200.7656,135.2168 Q201.0313,134.9512 201.1719,134.873 Q201.3281,134.7949 201.5313,134.7949 Q201.8594,134.7949 202.1094,135.0605 Q202.375,135.3105 202.375,135.6543 Q202.375,135.998 202.0313,136.4043 Q201.5313,136.9824 200.7344,137.3105 Q199.6563,137.7637 198.3594,137.7637 Q196.8438,137.7637 195.6406,137.1387 Q194.6563,136.6387 193.9688,135.5762 Q193.2813,134.498 193.2813,133.2168 L193.2813,132.0605 Q193.2813,130.7324 193.8906,129.5918 Q194.5156,128.4355 195.6094,127.8262 Q196.7031,127.2012 197.9375,127.2012 Q198.6719,127.2012 199.3125,127.373 Q199.9688,127.5293 200.5156,127.8887 Z " fill="#000000"/><text fill="#000000" font-family="sans-serif" font-size="14" lengthAdjust="spacing" textLength="70" x="218.25" y="137.8105">Automobile</text><line style="stroke:#181818;stroke-width:0.5;" x1="47" x2="427" y1="148.0137" y2="148.0137"/><rect fill="none" height="6" style="stroke:#C82930;stroke-width:1.0;" width="6" x="54" y="159.8242"/><text fill="#000000" font-family="sans-serif" font-size="14" lengthAdjust="spacing" textLength="59" x="66" y="167.1211">String vin</text><rect fill="none" height="6" style="stroke:#C82930;stroke-width:1.0;" width="6" x="54" y="178.4453"/><text fill="#000000" font-family="sans-serif" font-size="14" lengthAdjust="spacing" textLength="75" x="66" y="185.7422">String make</text><rect fill="none" height="6" style="stroke:#C82930;stroke-width:1.0;" width="6" x="54" y="197.0664"/><text fill="#000000" font-family="sans-serif" font-size="14" lengthAdjust="spacing" textLength="79" x="66" y="204.3633">String model</text><rect fill="none" height="6" style="stroke:#C82930;stroke-width:1.0;" width="6" x="54" y="215.6875"/><text fill="#000000" font-family="sans-serif" font-size="14" lengthAdjust="spacing" textLength="72" x="66" y="222.9844">String color</text><rect fill="none" height="6" style="stroke:#C82930;stroke-width:1.0;" width="6" x="54" y="234.3086"/><text fill="#000000" font-family="sans-serif" font-size="14" lengthAdjust="spacing" textLength="62" x="66" y="241.6055">Year year</text><rect fill="none" height="6" style="stroke:#C82930;stroke-width:1.0;" width="6" x="54" y="252.9297"/><text fill="#000000" font-family="sans-serif" font-size="14" lengthAdjust="spacing" textLength="68" x="66" y="260.2266">int mileage</text><line style="stroke:#181818;stroke-width:0.5;" x1="47" x2="427" y1="267.7402" y2="267.7402"/><ellipse cx="57" cy="282.5508" fill="#84BE84" rx="3" ry="3" style="stroke:#038048;stroke-width:1.0;"/><text fill="#000000" font-family="sans-serif" font-size="14" lengthAdjust="spacing" textLength="143" x="66" y="286.8477">&#171;Create&#187; Automobile()</text><ellipse cx="57" cy="301.1719" fill="#84BE84" rx="3" ry="3" style="stroke:#038048;stroke-width:1.0;"/><text fill="#000000" font-family="sans-serif" font-size="14" lengthAdjust="spacing" textLength="356" x="66" y="305.4688">&#171;Create&#187; Automobile(String,String,String,String,Year,int)</text><ellipse cx="57" cy="319.793" fill="#84BE84" rx="3" ry="3" style="stroke:#038048;stroke-width:1.0;"/><text fill="#000000" font-family="sans-serif" font-size="14" lengthAdjust="spacing" textLength="116" x="66" y="324.0898">void setVin(String)</text><ellipse cx="57" cy="338.4141" fill="#84BE84" rx="3" ry="3" style="stroke:#038048;stroke-width:1.0;"/><text fill="#000000" font-family="sans-serif" font-size="14" lengthAdjust="spacing" textLength="130" x="66" y="342.7109">void setMake(String)</text><ellipse cx="57" cy="357.0352" fill="#84BE84" rx="3" ry="3" style="stroke:#038048;stroke-width:1.0;"/><text fill="#000000" font-family="sans-serif" font-size="14" lengthAdjust="spacing" textLength="134" x="66" y="361.332">void setModel(String)</text><ellipse cx="57" cy="375.6563" fill="#84BE84" rx="3" ry="3" style="stroke:#038048;stroke-width:1.0;"/><text fill="#000000" font-family="sans-serif" font-size="14" lengthAdjust="spacing" textLength="130" x="66" y="379.9531">void setColor(String)</text><ellipse cx="57" cy="394.2773" fill="#84BE84" rx="3" ry="3" style="stroke:#038048;stroke-width:1.0;"/><text fill="#000000" font-family="sans-serif" font-size="14" lengthAdjust="spacing" textLength="119" x="66" y="398.5742">void setYear(Year)</text><ellipse cx="57" cy="412.8984" fill="#84BE84" rx="3" ry="3" style="stroke:#038048;stroke-width:1.0;"/><text fill="#000000" font-family="sans-serif" font-size="14" lengthAdjust="spacing" textLength="123" x="66" y="417.1953">void setMileage(int)</text><ellipse cx="57" cy="431.5195" fill="#84BE84" rx="3" ry="3" style="stroke:#038048;stroke-width:1.0;"/><text fill="#000000" font-family="sans-serif" font-size="14" lengthAdjust="spacing" textLength="91" x="66" y="435.8164">String getVin()</text><ellipse cx="57" cy="450.1406" fill="#84BE84" rx="3" ry="3" style="stroke:#038048;stroke-width:1.0;"/><text fill="#000000" font-family="sans-serif" font-size="14" lengthAdjust="spacing" textLength="105" x="66" y="454.4375">String getMake()</text><ellipse cx="57" cy="468.7617" fill="#84BE84" rx="3" ry="3" style="stroke:#038048;stroke-width:1.0;"/><text fill="#000000" font-family="sans-serif" font-size="14" lengthAdjust="spacing" textLength="109" x="66" y="473.0586">String getModel()</text><ellipse cx="57" cy="487.3828" fill="#84BE84" rx="3" ry="3" style="stroke:#038048;stroke-width:1.0;"/><text fill="#000000" font-family="sans-serif" font-size="14" lengthAdjust="spacing" textLength="105" x="66" y="491.6797">String getColor()</text><ellipse cx="57" cy="506.0039" fill="#84BE84" rx="3" ry="3" style="stroke:#038048;stroke-width:1.0;"/><text fill="#000000" font-family="sans-serif" font-size="14" lengthAdjust="spacing" textLength="94" x="66" y="510.3008">Year getYear()</text><ellipse cx="57" cy="524.625" fill="#84BE84" rx="3" ry="3" style="stroke:#038048;stroke-width:1.0;"/><text fill="#000000" font-family="sans-serif" font-size="14" lengthAdjust="spacing" textLength="154" x="66" y="528.9219">String getYearAsString()</text><ellipse cx="57" cy="543.2461" fill="#84BE84" rx="3" ry="3" style="stroke:#038048;stroke-width:1.0;"/><text fill="#000000" font-family="sans-serif" font-size="14" lengthAdjust="spacing" textLength="98" x="66" y="547.543">int getMileage()</text><ellipse cx="57" cy="561.8672" fill="#84BE84" rx="3" ry="3" style="stroke:#038048;stroke-width:1.0;"/><text fill="#000000" font-family="sans-serif" font-size="14" lengthAdjust="spacing" textLength="149" x="66" y="566.1641">String[] getAutomobile()</text><ellipse cx="57" cy="580.4883" fill="#84BE84" rx="3" ry="3" style="stroke:#038048;stroke-width:1.0;"/><text fill="#000000" font-family="sans-serif" font-size="14" lengthAdjust="spacing" textLength="100" x="66" y="584.7852">String toString()</text></g><!--SRC=[ZLJBQiCm4BpxAtHCg9il286GKw4v1GebvA3OYn6L9LUI3I6atrwz_50Y9RxOrcWykzeTRK6nb0ZATbN8jgByZEbgsofUypEXyC4wO8gB2xfcxsWh1Bvy4gdM8sE3IC_HZ8CIX5MenZyW3J5xG-lrJW1MiDcWYEvY-PeI3Ml-Y-TJWGhbEqvA9ATeKj5IQs3jub1Wna3aaOJIeKdTSF4gJdxcd09cHiRkkQBrV-_xsYqcF9iNrU14EvwOPUAo7BTZpCcnqgS9LOQ2n6ltr_TU1m3nHTZmWyDD67yWLBOD9OLkkANPxJpTv65f4ZBLYVGcGkGbq5dC7QTSp69-0vv7tEithfA9HgijeEOTp2_uR9su2SUkMCUqJQdx4Ol-n6OITp3tKlssHBq-qbKgh4XnypPEp8kGLUF1HSVJChjbnTEHPYUPzsf7M3Yq9YlZdt5P69FefR40kkY7_YPCeTfrEZN4qkEjzttqPQBaMduwlSQxCaNTVNY4dViVSE_r1zmwspm24UzYduYlHELI2H6RnXraKmWn5zvWjewL3noI3BILRcstJ9shCPsHVJmP_AxQNaZnGU7s3m00]--></g></svg>